<svg
  xmlns="http://www.w3.org/2000/svg"
  viewBox="0 0 1190.5 1683.8">
  <style>
    .path0 {
      fill-rule: evenodd;
      clip-rule: evenodd;
    }
  </style>
  <path
    class="path0"
    d="M552.6 901.7h102.9c3.6 5.6 7 11.1 10.6 16.8H524.4c23.7-37.6 47.4-75.2 71.2-112.9 3 4.8 5.8 9.4 8.8 14.1-17.3 27.2-34.6 54.5-52 81.7.2 0 .2.2.2.3z" />
  <path
    class="path0"
    d="M648.6 813.9h-3.8v10.7h3.9c-1.6 13.4-7.2 24.6-17 33.8-2-3.3-4-6.4-6-9.6 8.9-9.4 13.1-20.5 12-33.4-.9-11-5.6-20.2-13.8-27.6a42.05 42.05 0 0 0-56.6.3c-8.7 8-13.3 18-13.7 29.9-.3 11.8 3.8 22 12 30.7-2 3.2-4 6.3-5.9 9.4-7.7-4.9-16.8-23.2-16.9-33.7h3.7v-10.8h-3.7c2.1-24.8 23.9-48.1 53.7-47.7 29 .5 50 23.4 52.1 48z" />
  <path
    class="path0"
    d="M607.1 848.6h14.8c-10.8 16.8-21.4 33.4-32.1 50h-17.2c8.2-12.9 16.4-25.7 24.6-38.7h-14.8c8-12.5 15.9-24.9 24-37.4 3 4.8 5.9 9.4 8.8 14-2.8 4-5.4 8-8.1 12.1zM624.9 876.8h15.3c2.3 3.7 4.6 7.4 6.9 11.2h-29.5c-2.4 3.6-4.8 7.3-7.1 10.9h-17.2c10.3-16.1 20.4-32 30.7-48 4.9 7.8 9.7 15.5 14.6 23.4h-12c-.6.7-1.1 1.5-1.7 2.5z" />
</svg>
