<?xml version="1.0" encoding="utf-8"?>
<!-- Generator: Adobe Illustrator 21.1.0, SVG Export Plug-In . SVG Version: 6.00 Build 0)  -->
<svg version="1.1" id="Layer_1" xmlns="http://www.w3.org/2000/svg" xmlns:xlink="http://www.w3.org/1999/xlink" x="0px" y="0px"
	 viewBox="0 0 1190.5 1683.8" style="enable-background:new 0 0 1190.5 1683.8;" xml:space="preserve">
<style type="text/css">
	.st0{fill-rule:evenodd;clip-rule:evenodd;}
</style>
<g>
	<path class="st0" d="M552.6,901.7c34.3,0,68.6,0,102.9,0c3.6,5.6,7,11.1,10.6,16.8c-47.3,0-94.4,0-141.7,0
		c23.7-37.6,47.4-75.2,71.2-112.9c3,4.8,5.8,9.4,8.8,14.1c-17.3,27.2-34.6,54.5-52,81.7C552.6,901.4,552.6,901.6,552.6,901.7z"/>
	<path class="st0" d="M648.6,813.9c-1.3,0-2.5,0-3.8,0c0,3.6,0,7.1,0,10.7c1.2,0,2.5,0,3.9,0c-1.6,13.4-7.2,24.6-17,33.8
		c-2-3.3-4-6.4-6-9.6c8.9-9.4,13.1-20.5,12-33.4c-0.9-11-5.6-20.2-13.8-27.6c-16.2-14.5-40.6-14.4-56.6,0.3
		c-8.7,8-13.3,18-13.7,29.9c-0.3,11.8,3.8,22,12,30.7c-2,3.2-4,6.3-5.9,9.4c-7.7-4.9-16.8-23.2-16.9-33.7c1.2,0,2.4,0,3.7,0
		c0-3.6,0-7.1,0-10.8c-1.2,0-2.5,0-3.7,0c2.1-24.8,23.9-48.1,53.7-47.7C625.5,766.4,646.5,789.3,648.6,813.9z"/>
	<path class="st0" d="M607.1,848.6c5,0,9.8,0,14.8,0c-10.8,16.8-21.4,33.4-32.1,50c-5.7,0-11.4,0-17.2,0
		c8.2-12.9,16.4-25.7,24.6-38.7c-5,0-9.8,0-14.8,0c8-12.5,15.9-24.9,24-37.4c3,4.8,5.9,9.4,8.8,14
		C612.4,840.5,609.8,844.5,607.1,848.6z"/>
	<path class="st0" d="M624.9,876.8c5.2,0,10.2,0,15.3,0c2.3,3.7,4.6,7.4,6.9,11.2c-9.9,0-19.7,0-29.5,0c-2.4,3.6-4.8,7.3-7.1,10.9
		c-5.7,0-11.3,0-17.2,0c10.3-16.1,20.4-32,30.7-48c4.9,7.8,9.7,15.5,14.6,23.4c-4.1,0-8,0-12,0C626,875,625.5,875.8,624.9,876.8z"/>
</g>
</svg>
