<svg
  width="142"
  height="152"
  xmlns="http://www.w3.org/2000/svg">
  <style>
    .path0 {
      fill-rule: evenodd;
      clip-rule: evenodd;
    }
  </style>
  <g>
    <title>background</title>
    <rect
      fill="none"
      id="canvas_background"
      height="154"
      width="144"
      y="-1"
      x="-1" />
  </g>
  <g>
    <title>Layer 1</title>
    <path
      id="svg_1"
      class="path0"
      d="m28.336811,135.70667l102.9,0c3.6,5.6 7,11.1 10.6,16.8l-141.7,0c23.7,-37.6 47.4,-75.2 71.2,-112.9c3,4.8 5.8,9.4 8.8,14.1c-17.3,27.2 -34.6,54.5 -52,81.7c0.2,0 0.2,0.2 0.2,0.3z" />
    <path
      id="svg_2"
      class="path0"
      d="m124.736835,47.90667l-3.8,0l0,10.7l3.9,0c-1.6,13.4 -7.2,24.6 -17,33.8c-2,-3.3 -4,-6.4 -6,-9.6c8.9,-9.4 13.1,-20.5 12,-33.4c-0.9,-11 -5.6,-20.2 -13.8,-27.6a42.05,42.05 0 0 0 -56.6,0.3c-8.7,8 -13.3,18 -13.7,29.9c-0.3,11.8 3.8,22 12,30.7c-2,3.2 -4,6.3 -5.9,9.4c-7.7,-4.9 -16.8,-23.2 -16.9,-33.7l3.7,0l0,-10.8l-3.7,0c2.1,-24.8 23.9,-48.1 53.7,-47.7c29,0.5 50,23.4 52.1,48z" />
    <path
      id="svg_3"
      class="path0"
      d="m83.236835,82.60667l14.8,0c-10.8,16.8 -21.4,33.4 -32.1,50l-17.2,0c8.2,-12.9 16.4,-25.7 24.6,-38.7l-14.8,0c8,-12.5 15.9,-24.9 24,-37.4c3,4.8 5.9,9.4 8.8,14c-2.8,4 -5.4,8 -8.1,12.1zm17.8,28.2l15.3,0c2.3,3.7 4.6,7.4 6.9,11.2l-29.5,0c-2.4,3.6 -4.8,7.3 -7.1,10.9l-17.2,0c10.3,-16.1 20.4,-32 30.7,-48c4.9,7.8 9.7,15.5 14.6,23.4l-12,0c-0.6,0.7 -1.1,1.5 -1.7,2.5z" />
  </g>
</svg>
